<?xml version="1.0" encoding="UTF-8" standalone="no"?>
<!-- Created with Inkscape (http://www.inkscape.org/) -->

<svg
   width="287.711mm"
   height="50.835709mm"
   viewBox="0 0 287.711 50.835709"
   version="1.1"
   id="svg4366"
   inkscape:version="1.1.1 (3bf5ae0d25, 2021-09-20)"
   sodipodi:docname="secquiry-logo-C.svg"
   xmlns:inkscape="http://www.inkscape.org/namespaces/inkscape"
   xmlns:sodipodi="http://sodipodi.sourceforge.net/DTD/sodipodi-0.dtd"
   xmlns="http://www.w3.org/2000/svg"
   xmlns:svg="http://www.w3.org/2000/svg">
  <sodipodi:namedview
     id="namedview4368"
     pagecolor="#ffffff"
     bordercolor="#666666"
     borderopacity="1.0"
     inkscape:pageshadow="2"
     inkscape:pageopacity="0.0"
     inkscape:pagecheckerboard="0"
     inkscape:document-units="mm"
     showgrid="false"
     inkscape:zoom="0.36035003"
     inkscape:cx="521.71496"
     inkscape:cy="98.515324"
     inkscape:window-width="1920"
     inkscape:window-height="1017"
     inkscape:window-x="-8"
     inkscape:window-y="-8"
     inkscape:window-maximized="1"
     inkscape:current-layer="g14730" />
  <defs
     id="defs4363" />
  <g
     inkscape:label="Layer 1"
     inkscape:groupmode="layer"
     id="layer1"
     transform="translate(-7.3604249,-71.41283)">
    <g
       id="g4462"
       transform="translate(11.013597,9.1779974)">
      <g
         id="g14704"
         transform="matrix(0.38210426,0,0,0.38210426,-15.350568,51.416172)">
        <path
           style="fill:#039090;fill-opacity:1;stroke:none;stroke-width:1.38972;stroke-miterlimit:4;stroke-dasharray:none;stroke-opacity:1"
           d="m 168.01288,378.3623 c 2.19893,-7.05903 13.49821,-31.18153 20.14163,-42.99978 28.95331,-51.50624 72.25123,-97.77778 121.96063,-130.33664 13.39832,-8.77568 58.12694,-32.19565 59.28231,-31.04029 0.27435,0.27436 -3.38094,17.73433 -8.12288,38.79992 l -8.62172,38.30108 -4.96527,1.60727 c -13.94425,4.51381 -39.47151,20.66715 -54.64246,34.5771 -17.04308,15.62646 -34.31329,40.0865 -43.98604,62.29806 l -5.09649,11.70308 -19.99712,5.1374 c -10.99842,2.82558 -28.29967,7.35324 -38.44722,10.0615 -18.14752,4.84332 -18.43461,4.87433 -17.50537,1.8913 z"
           id="path12497"
           transform="matrix(0.26458333,0,0,0.26458333,-11.013597,-9.1779974)" />
        <path
           style="fill:#039090;fill-opacity:1;stroke:none;stroke-width:1.38972;stroke-miterlimit:4;stroke-dasharray:none;stroke-opacity:1"
           d="m 437.13225,578.2572 c -0.3022,-0.95393 -2.20288,-15.76299 -4.22374,-32.90903 -2.02085,-17.14603 -3.97623,-31.66317 -4.34527,-32.2603 -1.19463,-1.93296 -2.5593,-1.24709 -20.0428,10.07332 -22.95406,14.86255 -49.16675,27.65911 -72.09141,35.19374 -19.27445,6.33491 -40.51052,11.05274 -46.26765,10.27887 l -3.24553,-0.43626 10.17691,-45.09504 c 5.59731,-24.80228 11.79269,-52.08152 13.76751,-60.62055 l 3.5906,-15.5255 9.27934,-3.03524 c 52.58209,-17.19947 98.14997,-62.78834 112.91185,-112.96386 1.70715,-5.8026 3.99232,-10.73016 5.20659,-11.22708 3.5039,-1.43393 121.35404,-31.0292 121.79686,-30.58639 0.78249,0.78249 -3.90126,25.28412 -7.27031,38.03246 -6.75659,25.56667 -20.81096,56.83909 -38.23076,85.06742 -8.0021,12.96719 -9.50535,16.50603 -7.0115,16.50603 3.54365,0 67.23491,6.93271 67.66774,7.36555 1.08926,1.08925 -137.79047,143.87629 -139.93918,143.87629 -0.64888,0 -1.42705,-0.78049 -1.72925,-1.73443 z"
           id="path12647"
           transform="matrix(0.26458333,0,0,0.26458333,-11.013597,-9.1779974)" />
        <path
           style="fill:#013b3b;fill-opacity:1;stroke:none;stroke-width:1.38972;stroke-miterlimit:4;stroke-dasharray:none;stroke-opacity:1"
           d="m 634.79945,644.27943 c -10.67284,-1.23685 -42.66793,-8.03191 -74.23338,-15.76556 -36.38099,-8.91347 -88.93802,-23.09619 -92.05796,-24.8422 -2.39215,-1.33871 10.35084,-15.96666 44.16011,-50.69234 51.85382,-53.25935 85.5067,-83.99088 91.97505,-83.99088 2.38889,0 8.18979,18.32487 22.40118,70.76453 21.26689,78.47421 26.36832,99.92727 24.252,101.98689 -2.26122,2.20061 -9.63145,3.3352 -16.497,2.53956 z"
           id="path12686"
           transform="matrix(0.26458333,0,0,0.26458333,-11.013597,-9.1779974)" />
        <path
           style="fill:#03d6d6;fill-opacity:1;stroke:none;stroke-width:0.982684;stroke-miterlimit:4;stroke-dasharray:none;stroke-opacity:1"
           d="m 441.00738,301.94546 c -0.0175,-12.16109 -1.74557,-20.02009 -6.46078,-29.38326 -6.0259,-11.96583 -16.86346,-20.60548 -31.29856,-24.95108 -7.24204,-2.18016 -26.20735,-2.42427 -36.10095,-0.46465 -3.66674,0.72626 -6.91874,1.06854 -7.22666,0.76061 -0.81971,-0.8197 16.39607,-75.52376 17.69685,-76.79158 2.26107,-2.20375 25.82838,-8.05572 43.29126,-10.74958 14.93422,-2.30379 39.25616,-2.29296 51.50979,0.0229 11.37791,2.15038 23.26028,6.23586 34.33986,11.80698 34.49605,17.34556 54.50001,51.33691 56.62681,96.22201 l 0.56149,11.85007 -5.78268,1.59902 c -17.14155,4.73996 -115.39648,30.1352 -116.59396,30.1352 -0.30138,0 -0.55449,-4.52551 -0.56247,-10.05668 z"
           id="path12959"
           transform="matrix(0.26458333,0,0,0.26458333,-11.013597,-9.1779974)" />
        <path
           style="fill:#03d6d6;fill-opacity:1;stroke:none;stroke-width:0.735396;stroke-miterlimit:4;stroke-dasharray:none;stroke-opacity:1"
           d="m 32.834408,123.4833 c -1.985002,-4.63966 -2.725515,-12.37381 -1.870757,-19.53878 0.63669,-5.337041 1.928132,-10.932181 2.523312,-10.932181 0.08916,0 4.517345,-1.12866 9.84041,-2.50813 l 9.678297,-2.50813 v 4.61854 c 0,2.54019 0.496321,6.02526 1.102937,7.744591 l 1.102939,3.12607 -6.426176,6.9321 c -3.534397,3.81265 -8.286536,8.97303 -10.560306,11.46749 l -4.134128,4.53539 z"
           id="path14330" />
      </g>
      <g
         id="g14730"
         transform="matrix(0.85760809,0,0,0.85760809,9.7247252,10.239984)">
        <path
           style="fill:#fdfdfd;stroke-width:0.264583"
           d="M 50.625696,89.467332 V 60.62775 c 44.022944,0.615931 126.090544,93.67123 127.532194,0 h 133.08542 l -0.61703,28.839582 V 118.30691 H 177.54086 50.625696 Z M 185.15162,100.2491 c -0.0834,-15.33314 -0.13143,-16.856784 -0.57312,-18.190101 -1.18531,-3.578046 -3.06126,-5.786017 -5.8604,-6.897612 -1.47847,-0.587134 -1.97645,-0.630863 -8.19571,-0.719704 -8.98897,-0.128405 -11.17398,0.391778 -14.16514,3.372286 -2.80994,2.799927 -3.8148,5.904388 -3.8148,11.785655 0,2.968675 0.11779,4.402116 0.46744,5.688542 1.02568,3.773704 2.94403,6.422954 5.72375,7.904534 2.63803,1.40606 4.25774,1.61072 12.78795,1.61587 l 7.60677,0.005 v 6.08541 6.08542 h 3.05715 3.05716 z m -20.64759,-1.519486 c -3.3951,-0.439735 -5.26913,-2.652464 -5.82735,-6.880545 -0.59476,-4.504893 0.52274,-8.693807 2.74965,-10.306974 1.57359,-1.139902 3.32314,-1.399759 8.67085,-1.287865 5.02284,0.105097 5.64493,0.255107 7.23817,1.745408 1.43526,1.342534 1.65103,2.660163 1.65611,10.113528 l 0.005,6.746875 -6.4823,0.0337 c -3.56526,0.01853 -7.16964,-0.05532 -8.00974,-0.164132 z m 134.9733,-2.647698 c 4.91058,-11.423385 9.00751,-20.978151 9.10429,-21.232812 0.16164,-0.425335 -0.0876,-0.463021 -3.06199,-0.463021 h -3.23795 l -5.13448,11.90625 -5.13447,11.906249 h -0.97958 c -0.53877,0 -1.10044,-0.148828 -1.24815,-0.330729 -0.14772,-0.181901 -1.78125,-4.081198 -3.63008,-8.665104 -1.84884,-4.583906 -3.95818,-9.79289 -4.68745,-11.57552 l -1.32594,-3.241146 h -3.14617 c -1.73039,0 -3.14617,0.09132 -3.14617,0.202933 0,0.398696 10.56049,26.578004 10.97894,27.216634 0.61341,0.93617 1.86665,1.61858 3.34626,1.82208 0.70687,0.0972 1.28522,0.23354 1.28522,0.30295 0,0.13428 -5.26974,12.51321 -5.47578,12.86294 -0.0669,0.11357 1.38287,0.1731 3.22175,0.13229 l 3.34342,-0.0742 z M 74.967363,104.1708 c 3.763759,-1.59592 5.366637,-4.191421 5.347132,-8.658466 -0.0173,-3.960593 -1.520264,-6.399588 -4.710319,-7.643836 -1.425941,-0.556173 -2.142324,-0.625047 -8.177438,-0.786172 -3.638021,-0.09713 -6.91224,-0.300948 -7.276042,-0.452931 -1.215106,-0.507628 -1.69112,-1.300896 -1.706034,-2.843076 -0.01646,-1.702018 0.634443,-2.75687 1.9954,-3.23374 0.626077,-0.219374 3.627763,-0.320358 9.830947,-0.330729 l 8.929688,-0.01493 V 77.2965 74.386083 h -9.379686 c -5.937129,0 -9.894282,0.109186 -10.781771,0.297492 -4.663158,0.98942 -6.733667,3.906166 -6.515673,9.178694 0.09208,2.227171 0.208501,2.749963 0.889973,3.99655 0.896694,1.640282 2.494713,2.927877 4.482595,3.611822 1.055383,0.363114 2.670942,0.489752 7.857989,0.615953 6.079208,0.14791 6.580951,0.197112 7.276042,0.713536 1.090472,0.810175 1.445641,1.643933 1.323495,3.106907 -0.139959,1.676312 -0.986779,2.555708 -2.738295,2.843633 -0.703016,0.115564 -5.237039,0.217216 -10.075607,0.22589 l -8.797396,0.01577 v 2.92689 2.92689 l 10.517187,-0.0852 c 9.642469,-0.0781 10.616213,-0.12722 11.707813,-0.59008 z m 38.189877,-2.24861 v -2.890983 l -10.12032,-0.08558 C 93.387585,98.86403 92.873555,98.834749 91.991466,98.316568 90.449879,97.410971 89.873899,96.28873 89.873899,94.190706 v -1.812957 l 8.53281,-0.0041 c 9.262361,-0.0045 10.569741,-0.149903 12.730051,-1.415931 2.44321,-1.431819 3.41229,-3.513839 3.40299,-7.311186 -0.0125,-5.11693 -2.04515,-7.871623 -6.54739,-8.873278 -1.60549,-0.357187 -3.21292,-0.413753 -9.431581,-0.331904 -7.017898,0.09237 -7.5916,0.136528 -8.990381,0.691997 -3.096723,1.229735 -4.997876,3.757689 -5.50695,7.32256 -0.336584,2.356979 -0.344233,11.884183 -0.01138,14.184846 0.630007,4.354687 2.953369,6.894427 7.144756,7.810167 0.982077,0.21456 4.788632,0.32513 11.707816,0.34011 l 10.2526,0.0222 z M 89.873899,85.472423 c 0,-2.567546 0.446424,-3.683229 1.814105,-4.533732 0.936432,-0.582327 1.158439,-0.599483 7.757645,-0.599483 6.454501,0 6.830901,0.02735 7.540621,0.547974 0.91861,0.673853 1.67223,2.096251 1.67223,3.156192 0,1.221089 -0.81604,2.59129 -1.85126,3.108444 -0.82031,0.40979 -1.83989,0.462658 -8.929691,0.463021 l -8.00365,4.1e-4 z m 57.944771,16.454757 v -2.885979 l -8.66511,-0.117978 c -9.48553,-0.129148 -9.93499,-0.194601 -11.6978,-1.703496 -1.42173,-1.216946 -2.13655,-3.203289 -2.31979,-6.446274 -0.30724,-5.437244 0.96244,-8.574641 4.02957,-9.957189 0.93802,-0.422823 2.05844,-0.486415 9.85573,-0.559394 l 8.7974,-0.08234 v -2.911971 -2.911971 l -9.59115,0.09618 c -8.96353,0.08989 -9.68821,0.132542 -11.07444,0.651858 -4.15321,1.555891 -6.77265,4.754549 -7.77736,9.497077 -0.5008,2.363988 -0.50007,7.64251 0.001,10.030999 0.8409,4.005215 3.28659,7.396338 6.38445,8.852508 2.42806,1.14132 3.93594,1.29066 13.2597,1.31292 l 8.79747,0.021 z m 69.87222,2.16073 c 4.21827,-1.38266 6.93767,-4.43164 7.71487,-8.6499 0.17563,-0.953199 0.28926,-5.396669 0.28926,-11.310937 v -9.74099 h -3.0427 -3.04271 l -0.002,9.591145 c -7.9e-4,5.876296 -0.10897,9.978242 -0.27902,10.590565 -0.34777,1.252349 -1.61021,2.71101 -2.92828,3.383438 -1.48465,0.757415 -4.67291,1.124927 -8.18774,0.943803 -4.66547,-0.240416 -6.63154,-1.17371 -7.81166,-3.708196 -0.62799,-1.348684 -0.63041,-1.391197 -0.63299,-11.077318 l -0.002,-9.723437 h -3.05627 -3.05627 l 0.0828,10.914062 c 0.0825,10.873208 0.0852,10.919915 0.72777,12.477316 0.87368,2.117508 3.04159,4.420379 5.12771,5.446939 2.76583,1.36102 4.38604,1.58548 10.75761,1.49033 4.86699,-0.0727 5.9273,-0.16321 7.3417,-0.62682 z M 240.24711,89.599624 V 74.386083 h -3.04271 -3.04271 v 15.213541 15.213546 h 3.04271 3.04271 z m 14.86699,4.167188 c 0.0927,-12.49087 0.0678,-12.332501 2.06153,-13.130226 0.87699,-0.350901 2.13997,-0.42967 6.88933,-0.42967 h 5.81548 V 77.278813 74.35071 l -7.87135,0.08383 c -7.66898,0.08168 -7.90387,0.09998 -9.13589,0.711932 -1.55817,0.77395 -2.71221,2.129709 -3.29404,3.869817 -0.38169,1.141531 -0.4555,3.000732 -0.53825,13.559896 l -0.0959,12.236985 h 3.04356 3.04357 z M 240.51169,66.448583 241.12872,63.009 h -3.175 -3.175 l -0.61703,3.439583 v 3.439583 h 3.175 3.175 z"
           id="path14734"
           sodipodi:nodetypes="cccccccccssssssssccccccscssssccsccssscccsssscssssssscscssssssscccsssssssssscccsccccsssccscsssssssccssssssscsccssssscccssscsscccssccccssssccccsssscccccccccccssscccsssscccsccccccccc" />
        <path
           style="fill:#013b3b;stroke-width:0.264583;fill-opacity:1"
           d="m 181.59647,110.89858 v -6.08541 l -7.60677,-0.005 c -8.53021,-0.005 -10.14992,-0.20982 -12.78795,-1.61587 -2.77972,-1.48158 -4.69807,-4.130831 -5.72375,-7.904535 -0.34965,-1.286425 -0.46744,-2.719866 -0.46744,-5.688541 0,-5.881267 1.00486,-8.985728 3.8148,-11.785655 2.99116,-2.980509 5.17617,-3.500692 14.16514,-3.372287 6.21926,0.08884 6.71724,0.132571 8.19571,0.719704 2.79914,1.111596 4.67509,3.319566 5.8604,6.897613 0.44169,1.333317 0.4897,2.85696 0.57312,18.190101 l 0.091,16.7349 h -3.05716 -3.05715 v -6.08542 z m -0.1369,-18.785414 c -0.005,-7.453365 -0.22085,-8.770994 -1.65611,-10.113528 -1.59324,-1.490301 -2.21533,-1.640311 -7.23817,-1.745408 -2.88466,-0.06036 -5.22539,0.0186 -6.13221,0.206858 -3.12147,0.648013 -4.76332,2.792415 -5.28156,6.898166 -0.60825,4.818862 0.58034,8.877065 3.04654,10.4018 1.66667,1.03042 3.02444,1.169525 10.78382,1.132692 l 6.4823,-0.0337 z m 98.20508,24.680454 c 0.20604,-0.34973 5.47578,-12.72866 5.47578,-12.86294 0,-0.0694 -0.57835,-0.20574 -1.28522,-0.30295 -1.47961,-0.2035 -2.73285,-0.88591 -3.34626,-1.82208 -0.41845,-0.63863 -10.97894,-26.817938 -10.97894,-27.216634 0,-0.111613 1.41578,-0.202933 3.14617,-0.202933 h 3.14617 l 1.32594,3.241146 c 0.72926,1.782626 2.83861,6.991614 4.68745,11.57552 1.84883,4.583906 3.48236,8.483203 3.63008,8.665104 0.14771,0.181901 0.70938,0.330729 1.24815,0.330729 h 0.97958 l 5.13447,-11.906249 5.13448,-11.90625 h 3.23795 c 2.97441,0 3.22363,0.03769 3.06199,0.463021 -0.0968,0.254661 -4.48475,9.688665 -9.10429,21.232812 l -8.92833,20.769794 -3.34342,0.0742 c -1.83888,0.0408 -3.28867,-0.0187 -3.22175,-0.13229 z M 52.742363,101.91922 v -2.926888 l 8.797396,-0.01577 c 4.838568,-0.0087 9.372591,-0.110326 10.075607,-0.225891 1.751516,-0.287924 2.598336,-1.16732 2.738295,-2.843633 0.122146,-1.462974 -0.233023,-2.296731 -1.323495,-3.106906 -0.695091,-0.516425 -1.196834,-0.565627 -7.276042,-0.713537 -5.187047,-0.126203 -6.802606,-0.252841 -7.857989,-0.615955 -1.987882,-0.683945 -3.585901,-1.97154 -4.482595,-3.611822 -0.681472,-1.246587 -0.79789,-1.769379 -0.889973,-3.99655 -0.217994,-5.272528 1.852515,-8.189274 6.515673,-9.178694 0.887489,-0.188306 4.844642,-0.297492 10.781771,-0.297492 h 9.379686 v 2.910417 2.910416 l -8.929688,0.01493 c -6.203184,0.01037 -9.20487,0.111356 -9.830947,0.330729 -1.360957,0.476871 -2.01186,1.531723 -1.9954,3.233741 0.01491,1.542179 0.490928,2.335448 1.706034,2.843075 0.363802,0.151984 3.638021,0.355803 7.276042,0.452931 6.035114,0.161126 6.751497,0.23 8.177438,0.786172 3.190055,1.244248 4.693023,3.683244 4.710319,7.643836 0.0195,4.467045 -1.583373,7.062551 -5.347132,8.658471 -1.0916,0.46286 -2.065344,0.51194 -11.707813,0.59008 l -10.517187,0.0852 z m 40.305532,2.53166 c -4.191386,-0.91574 -6.514748,-3.45548 -7.144756,-7.810159 -0.332845,-2.300663 -0.325196,-11.827867 0.01138,-14.184847 0.509074,-3.56487 2.410227,-6.092824 5.50695,-7.32256 1.398781,-0.555469 1.972482,-0.599627 8.990381,-0.691996 6.21866,-0.08185 7.82609,-0.02528 9.43158,0.331904 4.50224,1.001654 6.53487,3.756348 6.54739,8.873277 0.009,3.797348 -0.95978,5.879367 -3.40299,7.311186 -2.16032,1.266029 -3.4677,1.411444 -12.73005,1.415931 l -8.5328,0.0041 v 1.812957 c 0,2.098024 0.57598,3.220265 2.117567,4.125862 0.882089,0.518181 1.396119,0.547458 11.045453,0.629055 l 10.12032,0.08558 v 2.89098 2.89098 l -10.25261,-0.0222 c -6.919181,-0.015 -10.725735,-0.12554 -11.707813,-0.34011 z M 108.65832,87.151818 c 1.03522,-0.517154 1.85126,-1.887355 1.85126,-3.108444 0,-1.059941 -0.75362,-2.482339 -1.67223,-3.156192 -0.70972,-0.520621 -1.08612,-0.547974 -7.54062,-0.547974 -6.599208,0 -6.821215,0.01716 -7.757647,0.599483 -1.367681,0.850503 -1.814105,1.966186 -1.814105,4.533732 v 2.142826 l 8.003651,-5.29e-4 c 7.089801,-2.65e-4 8.109381,-0.05323 8.929691,-0.463021 z m 21.82034,17.271752 c -4.85313,-1.05656 -8.14806,-4.546114 -9.25047,-9.796863 -0.50147,-2.388489 -0.5022,-7.667011 -0.001,-10.030999 1.0047,-4.742528 3.62415,-7.941186 7.77735,-9.497077 1.38624,-0.519316 2.1109,-0.561972 11.07444,-0.651858 l 9.59115,-0.09618 v 2.911971 2.911971 l -8.7974,0.08234 c -7.79727,0.07298 -8.91771,0.136571 -9.85573,0.559394 -3.06713,1.382548 -4.3368,4.519945 -4.02957,9.957189 0.18325,3.242985 0.89806,5.229328 2.31979,6.446274 1.76281,1.508895 2.21227,1.574347 11.69781,1.703496 l 8.6651,0.117978 v 2.885974 2.886 l -8.7974,-0.021 c -6.20672,-0.0148 -9.26747,-0.12337 -10.39368,-0.36857 z m 72.4622,-0.0106 c -3.92952,-0.88361 -7.14097,-3.39742 -8.47699,-6.635499 -0.64258,-1.557401 -0.64528,-1.60411 -0.72777,-12.477316 l -0.0828,-10.914062 h 3.05627 3.05627 l 0.003,9.723437 c 0.003,9.686121 0.005,9.728634 0.63299,11.077318 1.18012,2.534486 3.14619,3.46778 7.81166,3.708196 3.51483,0.181124 6.70309,-0.186388 8.18774,-0.943803 1.31807,-0.672428 2.58051,-2.131089 2.92829,-3.383438 0.17004,-0.612323 0.27811,-4.714269 0.27901,-10.590565 l 0.001,-9.591145 h 3.04271 3.0427 v 9.74099 c 0,5.91427 -0.11363,10.357738 -0.28926,11.310937 -0.7772,4.21826 -3.4966,7.26724 -7.71487,8.6499 -1.4144,0.46361 -2.47471,0.55414 -7.3417,0.62682 -4.28703,0.064 -6.11225,-0.0103 -7.40833,-0.30177 z M 231.69359,89.599624 V 74.386083 h 3.04271 3.04271 v 15.213541 15.213546 h -3.04271 -3.04271 z m 13.02814,2.976563 c 0.0828,-10.559164 0.15656,-12.418365 0.53825,-13.559896 0.58183,-1.740108 1.73587,-3.095867 3.29404,-3.869817 1.23202,-0.611951 1.4669,-0.630257 9.13589,-0.711932 l 7.87135,-0.08383 v 2.928103 2.928103 h -5.81548 c -4.74936,0 -6.01234,0.07877 -6.88933,0.42967 -1.99371,0.797725 -1.96881,0.639356 -2.06153,13.130226 l -0.082,11.046356 h -3.04357 -3.04356 z M 231.69359,66.448583 V 63.009 h 3.175 3.175 v 3.439583 3.439583 h -3.175 -3.175 z"
           id="path14732"
           sodipodi:nodetypes="cccssssssscccccccssssssccsssssscsssscccssscsscccssssssssscccssssssssccccssssscsccssscccscccssssscccccscsscccssssscccscccsscccsssssccccsssscccccccccccsssscccssscccsccccccccc" />
      </g>
    </g>
  </g>
</svg>
